<svg width="71" height="56" viewBox="0 0 71 56" fill="none" xmlns="http://www.w3.org/2000/svg">
<path d="M0 28C0 12.536 12.536 0 28 0H42.0351C57.4991 0 70.0351 12.536 70.0351 28C70.0351 43.464 57.4991 56 42.0351 56H28C12.536 56 0 43.464 0 28Z" fill="white" fill-opacity="0.2"/>
<path d="M35 33.3334C37.9455 33.3334 40.3334 30.9455 40.3334 28C40.3334 25.0545 37.9455 22.6667 35 22.6667C32.0545 22.6667 29.6667 25.0545 29.6667 28C29.6667 30.9455 32.0545 33.3334 35 33.3334Z" stroke="white" stroke-width="2" stroke-linecap="round" stroke-linejoin="round"/>
<path d="M35 14.6667V17.3334" stroke="white" stroke-width="2" stroke-linecap="round" stroke-linejoin="round"/>
<path d="M35 38.6667V41.3334" stroke="white" stroke-width="2" stroke-linecap="round" stroke-linejoin="round"/>
<path d="M25.5733 18.5733L27.4533 20.4533" stroke="white" stroke-width="2" stroke-linecap="round" stroke-linejoin="round"/>
<path d="M42.5467 35.5467L44.4267 37.4267" stroke="white" stroke-width="2" stroke-linecap="round" stroke-linejoin="round"/>
<path d="M21.6667 28H24.3334" stroke="white" stroke-width="2" stroke-linecap="round" stroke-linejoin="round"/>
<path d="M45.6667 28H48.3334" stroke="white" stroke-width="2" stroke-linecap="round" stroke-linejoin="round"/>
<path d="M27.4533 35.5467L25.5733 37.4267" stroke="white" stroke-width="2" stroke-linecap="round" stroke-linejoin="round"/>
<path d="M44.4267 18.5733L42.5467 20.4533" stroke="white" stroke-width="2" stroke-linecap="round" stroke-linejoin="round"/>
</svg>
