<svg width="45" height="36" viewBox="0 0 45 36" fill="none" xmlns="http://www.w3.org/2000/svg">
<path d="M0 18C0 8.05888 8.05887 0 18 0H26.7519C36.693 0 44.7519 8.05888 44.7519 18C44.7519 27.9411 36.693 36 26.7519 36H18C8.05889 36 0 27.9411 0 18Z" fill="white" fill-opacity="0.2"/>
<path d="M22 26.3333C23.5471 26.3333 25.0308 25.7188 26.1248 24.6248C27.2187 23.5308 27.8333 22.0471 27.8333 20.5C27.8333 18.8333 27 17.25 25.3333 15.9167C23.6667 14.5833 22.4167 12.5833 22 10.5C21.5833 12.5833 20.3333 14.5833 18.6667 15.9167C17 17.25 16.1667 18.8333 16.1667 20.5C16.1667 22.0471 16.7812 23.5308 17.8752 24.6248C18.9692 25.7188 20.4529 26.3333 22 26.3333Z" stroke="white" stroke-width="2" stroke-linecap="round" stroke-linejoin="round"/>
</svg>
